<svg xmlns="http://www.w3.org/2000/svg" xmlns:xlink="http://www.w3.org/1999/xlink" viewBox="0 0 2794.58 2263.87"><defs><style>.cls-1{isolation:isolate;}.cls-2{fill:url(#linear-gradient);}.cls-3{fill:url(#linear-gradient-2);}.cls-4{fill:url(#linear-gradient-3);}.cls-11,.cls-24,.cls-30,.cls-5,.cls-8{fill:#fff;}.cls-5{opacity:0.65;}.cls-6{fill:url(#linear-gradient-4);}.cls-7{fill:url(#linear-gradient-5);}.cls-9{fill:url(#linear-gradient-6);}.cls-10{fill:url(#linear-gradient-7);}.cls-11{mix-blend-mode:soft-light;}.cls-12{fill:url(#linear-gradient-8);}.cls-13{fill:url(#linear-gradient-9);}.cls-14{fill:url(#linear-gradient-10);}.cls-15{fill:url(#linear-gradient-11);}.cls-16{fill:url(#linear-gradient-12);}.cls-17{opacity:0.3;}.cls-18{fill:url(#linear-gradient-13);}.cls-19{fill:url(#linear-gradient-14);}.cls-20{fill:url(#linear-gradient-15);}.cls-21{fill:url(#linear-gradient-16);}.cls-22{fill:url(#linear-gradient-17);}.cls-23{fill:url(#linear-gradient-18);}.cls-24{opacity:0.56;}.cls-25{fill:url(#linear-gradient-19);}.cls-26{fill:url(#linear-gradient-20);}.cls-27{fill:url(#linear-gradient-21);}.cls-28{fill:url(#linear-gradient-22);}.cls-29{fill:url(#linear-gradient-23);}.cls-30{opacity:0.5;}.cls-31{fill:url(#linear-gradient-24);}</style><linearGradient id="linear-gradient" x1="1622.94" y1="2334.3" x2="1591.1" y2="1703.9" gradientUnits="userSpaceOnUse"><stop offset="0" stop-color="#2b3582"/><stop offset="1" stop-color="#150e42"/></linearGradient><linearGradient id="linear-gradient-2" x1="1549.84" y1="1159.4" x2="1426.43" y2="-916.79" xlink:href="#linear-gradient"/><linearGradient id="linear-gradient-3" x1="1634.2" y1="-742.35" x2="1441.82" y2="1740.37" gradientUnits="userSpaceOnUse"><stop offset="0" stop-color="#53d8ff"/><stop offset="1" stop-color="#3840f7"/></linearGradient><linearGradient id="linear-gradient-4" x1="1770.73" y1="1500.68" x2="1431.96" y2="2152.94" xlink:href="#linear-gradient"/><linearGradient id="linear-gradient-5" x1="3034.58" y1="-480.03" x2="-1032.3" y2="2617.76" gradientUnits="userSpaceOnUse"><stop offset="0" stop-color="#fdf53f"/><stop offset="0.66" stop-color="#e57a58"/><stop offset="1" stop-color="#d93c65"/></linearGradient><linearGradient id="linear-gradient-6" x1="2017.46" y1="-582.17" x2="1249.71" y2="1198.23" gradientUnits="userSpaceOnUse"><stop offset="0" stop-color="#a737d5"/><stop offset="1" stop-color="#ef497a"/></linearGradient><linearGradient id="linear-gradient-7" x1="6331.52" y1="86.41" x2="7379.05" y2="86.41" gradientTransform="matrix(0.92, 0.38, -0.38, 0.92, -5835.78, -1819.98)" xlink:href="#linear-gradient-6"/><linearGradient id="linear-gradient-8" x1="-1545.76" y1="3417.53" x2="-541.12" y2="3417.53" gradientTransform="translate(-1446.62 -2164.23) rotate(-50.87)" gradientUnits="userSpaceOnUse"><stop offset="0" stop-color="#ce1567"/><stop offset="1" stop-color="#7a1dbc"/></linearGradient><linearGradient id="linear-gradient-9" x1="1681.31" y1="1139.65" x2="43" y2="2036.35" xlink:href="#linear-gradient"/><linearGradient id="linear-gradient-10" x1="942.44" y1="1360.46" x2="542.41" y2="3812.31" xlink:href="#linear-gradient-5"/><linearGradient id="linear-gradient-11" x1="1542.26" y1="1414.65" x2="148.23" y2="2890.28" gradientTransform="translate(1819.37 4168.5) rotate(-180)" xlink:href="#linear-gradient"/><linearGradient id="linear-gradient-12" x1="1350.57" y1="605.05" x2="719.06" y2="2069.49" xlink:href="#linear-gradient-6"/><linearGradient id="linear-gradient-13" x1="2070.83" y1="778.62" x2="2583.51" y2="778.62" gradientUnits="userSpaceOnUse"><stop offset="0" stop-color="#b37cff"/><stop offset="1" stop-color="#f895e7"/></linearGradient><linearGradient id="linear-gradient-14" x1="2608.44" y1="643.58" x2="2638.38" y2="643.58" xlink:href="#linear-gradient-13"/><linearGradient id="linear-gradient-15" x1="2763.85" y1="872.38" x2="2784.4" y2="872.38" xlink:href="#linear-gradient-13"/><linearGradient id="linear-gradient-16" x1="2260.72" y1="1106.09" x2="2788.79" y2="1106.09" xlink:href="#linear-gradient-13"/><linearGradient id="linear-gradient-17" x1="2208.08" y1="1217.4" x2="2237.64" y2="1217.4" xlink:href="#linear-gradient-13"/><linearGradient id="linear-gradient-18" x1="4421.76" y1="311.06" x2="5247.54" y2="1767.93" gradientTransform="translate(5189.45 -2759) rotate(119.58)" gradientUnits="userSpaceOnUse"><stop offset="0" stop-color="#cb236d"/><stop offset="1" stop-color="#4c246d"/></linearGradient><linearGradient id="linear-gradient-19" x1="1959.12" y1="1921.45" x2="2633.33" y2="842.72" xlink:href="#linear-gradient"/><linearGradient id="linear-gradient-20" x1="2612.26" y1="886.78" x2="1297.63" y2="2985.13" xlink:href="#linear-gradient-5"/><linearGradient id="linear-gradient-21" x1="2502.83" y1="640.89" x2="1994.45" y2="1819.79" xlink:href="#linear-gradient-6"/><linearGradient id="linear-gradient-22" x1="1902.23" y1="2581.38" x2="2635.53" y2="1685.12" xlink:href="#linear-gradient"/><linearGradient id="linear-gradient-23" x1="2479.46" y1="1581.69" x2="2303.29" y2="3285.52" gradientTransform="translate(0.54 -5.54) rotate(-0.71)" xlink:href="#linear-gradient-5"/><linearGradient id="linear-gradient-24" x1="2691.23" y1="1321.86" x2="2329.95" y2="2159.67" xlink:href="#linear-gradient-6"/></defs><title>Asset 1</title><g class="cls-1"><g id="Layer_2" data-name="Layer 2"><g id="Illustration"><polygon class="cls-2" points="1342.15 1326.98 1289.27 1801.24 1902.77 1801.24 1822.86 1326.98 1342.15 1326.98"/><path class="cls-3" d="M274.59,124.62V1242.3a169.56,169.56,0,0,0,165.19,169.51c408.23,10.52,1836,36,2224.63,30.32a124.77,124.77,0,0,0,122.83-121.21c7.49-259.65,19.66-884-25.38-1173.9A128.39,128.39,0,0,0,2639.11,38.35c-342.05-10.94-1855.61-45.68-2244-37A123.25,123.25,0,0,0,274.59,124.62Z"/><path class="cls-4" d="M344.73,119.18V1181.06a98.23,98.23,0,0,0,96.76,98.22l2167,26.77a95.6,95.6,0,0,0,97-95.24l3.62-1052.38a69.91,69.91,0,0,0-68.22-70.16L422.33,43.45A75.75,75.75,0,0,0,344.73,119.18Z"/><path class="cls-5" d="M2721.85,1350.05h-.06l-2377.12-40.5a3.49,3.49,0,1,1,.11-7l2377.13,40.5a3.49,3.49,0,0,1-.06,7Z"/><path class="cls-6" d="M2034.92,1898.27H1137c-24.39,0-42.71-17.36-38-36l11.52-45.57c3.46-13.7,18.54-23.77,36.45-24.32l865.61-27c18.71-.59,35.27,9.34,39.35,23.58l20.77,72.58C2078.11,1880.38,2059.71,1898.27,2034.92,1898.27Z"/><path class="cls-7" d="M344.73,119.18V1181.06a98.23,98.23,0,0,0,96.76,98.22l2167,26.77a95.6,95.6,0,0,0,97-95.24l3.62-1052.38a69.91,69.91,0,0,0-68.22-70.16L422.33,43.45A75.75,75.75,0,0,0,344.73,119.18Z"/><ellipse class="cls-8" cx="1566.32" cy="580.25" rx="340.88" ry="345.24"/><path class="cls-9" d="M1554.31,766.27a42.09,42.09,0,0,1-36.16-20.72l-128.24-216.2a43,43,0,0,1,14.44-58.64,41.9,41.9,0,0,1,57.9,14.63l89,150.07L1669,401.31a41.94,41.94,0,0,1,56.75-18.7,43,43,0,0,1,18.46,57.48L1591.92,742.93a42.19,42.19,0,0,1-36.12,23.32Z"/><path class="cls-10" d="M214.47,123.91c-2.6-11,12.94-18.39,22.45-10.67C333.51,191.57,565.61,426.13,507.76,836c-72.57,514.3,51.5,702,205.94,816.44,0,0-212.09-53.83-345.53-244.26C40.55,940.68,260.59,320.26,214.47,123.91Z"/><path class="cls-11" d="M288,284.54c12.08,57.26,22.85,114.69,31.17,172.37q13,86.46,19.87,173.42c4.29,57.95,7.32,115.95,7.49,174,.48,58-1.94,116-4.59,174.21-2.28,58.19-5,116.79-.71,175.81s16.59,118.32,41.19,174c6.15,13.88,12.62,27.72,20,41.09,7.06,13.5,14.82,26.73,22.85,39.83A628.86,628.86,0,0,0,480,1484.64c40.82,47.87,90,90.33,144.28,126.27,5.71,3.78,13.88,2.85,18.26-2.08s3.34-11.73-2.1-15.56l0,0c-12.91-9.06-25.68-18.24-37.93-27.88-6.21-4.74-12.17-9.7-18.24-14.57-5.84-5-11.91-9.92-17.57-15.13A624.11,624.11,0,0,1,503,1470.18c-38.93-46-70.09-97.32-93.71-150.49a508.68,508.68,0,0,1-27.31-82,559.43,559.43,0,0,1-13.18-84.94c-4.64-57.28-2.54-115.31-.75-173.51s3-116.71,1.43-175.17q-1-43.84-3.85-87.62c-.85-14.6-2-29.18-3.17-43.75q-1.95-21.86-4.24-43.67-9.4-87.27-25-173.84c-10.75-57.63-23.27-115-38.33-171.85a3.53,3.53,0,0,0-4.18-2.27A3.06,3.06,0,0,0,288,284.54Z"/><path class="cls-12" d="M464.69,1354.93a24.31,24.31,0,0,1-39.79-6.78c-39.32-86.79-128.28-342.24,18.65-636.52,124.07-248.52,167.73-395.06,182.94-463,3.22-14.36,22.89-16.26,28.83-2.8C720.85,394.39,893.86,899.58,464.69,1354.93Z"/><path class="cls-11" d="M443.18,1345.77a6.92,6.92,0,0,1-1.3.1,6.74,6.74,0,0,1-6.64-6.84c.07-4.22,8.28-426.09,165.19-779.42a6.74,6.74,0,1,1,12.32,5.47c-155.76,350.76-164,770-164,774.15A6.76,6.76,0,0,1,443.18,1345.77Z"/><path class="cls-13" d="M125.19,2021.08a28.61,28.61,0,0,0,28.54,28.51h1543.2a28.61,28.61,0,0,0,28.53-28.51l12.85-886.83c0-15.68-18.48-46.29-52.34-44l-1508.18-39A71.91,71.91,0,0,0,104,1124.79Z"/><path class="cls-14" d="M153.37,1993.73a27.07,27.07,0,0,0,27,27H1659.71a27.08,27.08,0,0,0,27-27l12.12-805.07c-1.43-48.45-43.9-65.86-69.65-64.84L183.72,1085.05a50.53,50.53,0,0,0-51.85,51.72Z"/><rect class="cls-15" y="2045.29" width="1819.37" height="77.92" rx="5.65" ry="5.65" transform="translate(1819.37 4168.5) rotate(180)"/><path class="cls-8" d="M1670.72,1611.27h0a4,4,0,0,1-3.9-4l1-65.29a4,4,0,0,1,4-3.9h.06a4,4,0,0,1,3.9,4l-1,65.29A4,4,0,0,1,1670.72,1611.27Z"/><path class="cls-8" d="M1673.07,1451.27h0a4,4,0,0,1-3.9-4l3.67-250.06c-.07-14.85-4.58-26.71-13.4-35.17-16.48-15.78-42.63-15-43.73-14.92l-462-12.39a4,4,0,0,1-3.85-4.06,3.79,3.79,0,0,1,4.06-3.85l461.73,12.39c2.87-.17,30.72-.65,49.26,17.12,10.43,10,15.76,23.76,15.84,40.92L1677,1447.37A4,4,0,0,1,1673.07,1451.27Z"/><ellipse class="cls-8" cx="979.48" cy="1561.18" rx="280.38" ry="283.97"/><path class="cls-16" d="M969.61,1714.19a34.63,34.63,0,0,1-29.75-17L834.38,1519.32a35.42,35.42,0,0,1,11.88-48.24,34.46,34.46,0,0,1,47.62,12l73.23,123.44L1063.9,1414a34.5,34.5,0,0,1,46.68-15.37,35.37,35.37,0,0,1,15.19,47.27L1000.55,1695a34.7,34.7,0,0,1-29.72,19.18Z"/><g class="cls-17"><path class="cls-18" d="M2081.65,981a9,9,0,0,1-8.93-8c-1.06-10.09-1.69-20.39-1.89-30.59a9,9,0,0,1,8.82-9.16h.17a9,9,0,0,1,9,8.81c.18,9.7.78,19.48,1.79,29.07a9,9,0,0,1-8,9.87A7.4,7.4,0,0,1,2081.65,981Zm.58-78.3a9.73,9.73,0,0,1-1.07-.06,9,9,0,0,1-7.87-10c1.2-10.13,2.84-20.3,4.89-30.24a9,9,0,1,1,17.6,3.61c-1.94,9.45-3.5,19.12-4.64,28.74A9,9,0,0,1,2082.23,902.72Zm17.8-76.23a8.83,8.83,0,0,1-3-.52,9,9,0,0,1-5.45-11.48c3.41-9.59,7.28-19.15,11.51-28.41a9,9,0,0,1,16.36,7.47c-4,8.79-7.7,17.86-10.94,27A9,9,0,0,1,2100,826.49Zm34.42-70.34a9,9,0,0,1-7.57-13.82c5.47-8.59,11.39-17,17.57-25.12a9,9,0,0,1,14.28,10.92c-5.88,7.68-11.5,15.7-16.7,23.86A9,9,0,0,1,2134.45,756.15Zm49.23-60.91a9,9,0,0,1-6.32-15.38c7.23-7.14,14.86-14.07,22.69-20.59a9,9,0,1,1,11.51,13.81c-7.44,6.2-14.7,12.78-21.57,19.57A8.94,8.94,0,0,1,2183.68,695.24Zm61.47-48.49a9,9,0,0,1-4.75-16.62c8.64-5.37,17.62-10.44,26.68-15.06a9,9,0,0,1,8.17,16c-8.62,4.39-17.15,9.21-25.36,14.31A9,9,0,0,1,2245.15,646.75Zm329.37-21.4a9,9,0,0,1-3.72-.81c-8.79-4-17.87-7.66-27-10.89a9,9,0,0,1,6-16.94c9.61,3.4,19.18,7.26,28.44,11.46a9,9,0,0,1-3.72,17.18ZM2315.8,613.11a9,9,0,0,1-2.93-17.49c9.62-3.32,19.5-6.26,29.37-8.74a9,9,0,1,1,4.38,17.44c-9.37,2.35-18.75,5.14-27.89,8.29A9.11,9.11,0,0,1,2315.8,613.11ZM2500,601.2a9.16,9.16,0,0,1-1.8-.18c-9.47-1.93-19.15-3.47-28.77-4.59a9,9,0,1,1,2.08-17.85c10.12,1.18,20.3,2.8,30.27,4.82a9,9,0,0,1-1.78,17.8Zm-107.85-5.11a9,9,0,0,1-.94-17.93c10.11-1.08,20.4-1.73,30.58-1.94h.19a9,9,0,0,1,.19,18c-9.68.2-19.45.82-29.05,1.85C2392.84,596.07,2392.51,596.09,2392.19,596.09Z"/><path class="cls-19" d="M2629.38,656.55a8.91,8.91,0,0,1-5.12-1.61c-3.81-2.64-7.73-5.25-11.66-7.76a9,9,0,1,1,9.65-15.16c4.14,2.63,8.27,5.38,12.27,8.16a9,9,0,0,1-5.14,16.37Z"/></g><g class="cls-17"><path class="cls-20" d="M2775.4,888.44a9,9,0,0,1-8.87-7.57c-.73-4.57-1.57-9.21-2.5-13.78a9,9,0,0,1,17.62-3.57c1,4.81,1.86,9.69,2.64,14.51a9,9,0,0,1-7.46,10.3A10,10,0,0,1,2775.4,888.44Z"/><path class="cls-21" d="M2430.13,1294.15q-6.2,0-12.45-.21a9,9,0,0,1,.61-18c9.61.33,19.22.26,28.66-.2a9,9,0,0,1,.88,18C2442,1294,2436,1294.15,2430.13,1294.15Zm-59.66-5a9.85,9.85,0,0,1-1.52-.13c-9.89-1.69-19.81-3.82-29.5-6.33a9,9,0,1,1,4.51-17.4c9.2,2.38,18.63,4.4,28,6a9,9,0,0,1-1.51,17.85Zm124.33-1a9,9,0,0,1-1.66-17.82c9.34-1.76,18.72-3.94,27.9-6.49a9,9,0,0,1,4.8,17.33c-9.66,2.68-19.54,5-29.37,6.83A9.51,9.51,0,0,1,2494.8,1288.13Zm-198.41-20.3a9,9,0,0,1-3.42-.68c-9.26-3.81-18.47-8.07-27.38-12.65a9,9,0,0,1,8.23-16c8.45,4.35,17.2,8.4,26,12a9,9,0,0,1-3.43,17.3Zm272-2.24a9,9,0,0,1-3.57-17.24c8.71-3.77,17.39-8,25.79-12.46a9,9,0,0,1,8.49,15.84c-8.84,4.74-18,9.16-27.15,13.12A9,9,0,0,1,2568.43,1265.59Zm66.91-38.15a9,9,0,0,1-5.29-16.26c7.7-5.6,15.26-11.59,22.46-17.79a9,9,0,0,1,11.74,13.61c-7.58,6.53-15.53,12.83-23.63,18.72A9,9,0,0,1,2635.34,1227.44Zm57-51.84a9,9,0,0,1-6.74-14.93c6.31-7.15,12.38-14.63,18.05-22.26a9,9,0,1,1,14.43,10.73c-6,8-12.36,15.91-19,23.42A9,9,0,0,1,2692.34,1175.6Zm44.34-63a9,9,0,0,1-7.87-13.32c4.59-8.35,8.87-17,12.73-25.67a9,9,0,0,1,16.42,7.3c-4.06,9.15-8.57,18.24-13.4,27A9,9,0,0,1,2736.68,1112.58Zm29.42-71.25a9,9,0,0,1-8.64-11.48c2.63-9.13,4.9-18.49,6.76-27.83a9,9,0,1,1,17.63,3.51c-1.95,9.83-4.34,19.68-7.11,29.29A9,9,0,0,1,2766.1,1041.33Zm13.05-75.92-.55,0a9,9,0,0,1-8.43-9.52c.43-7,.65-14.08.65-21.08q0-3.79-.09-7.57a9,9,0,0,1,8.79-9.18,8.87,8.87,0,0,1,9.18,8.78c.06,2.66.09,5.31.09,8,0,7.36-.23,14.82-.68,22.18A9,9,0,0,1,2779.15,965.41Z"/><path class="cls-22" d="M2228.64,1230.64a9,9,0,0,1-5.16-1.63c-4-2.8-8-5.73-11.88-8.73a9,9,0,1,1,10.93-14.26c3.71,2.84,7.51,5.62,11.29,8.28a9,9,0,0,1-5.18,16.34Z"/></g><path class="cls-23" d="M2240.77,1126.39a4.2,4.2,0,0,0,4.71,1.28l48-17.64a222.58,222.58,0,0,0,63.54,34.21l11.7,49.74a4.21,4.21,0,0,0,3.67,3.22l61,6.18a4.2,4.2,0,0,0,4.24-2.42l21.44-46.38a222.53,222.53,0,0,0,69.1-20.78l43.48,26.91a4.18,4.18,0,0,0,4.86-.31l47.52-38.78a4.19,4.19,0,0,0,1.29-4.7l-17.65-48a222.53,222.53,0,0,0,34.21-63.53l49.74-11.71a4.19,4.19,0,0,0,3.22-3.66l6.18-61a4.21,4.21,0,0,0-2.42-4.24l-46.38-21.44a222.59,222.59,0,0,0-20.77-69.1l26.91-43.47a4.22,4.22,0,0,0-.32-4.87l-38.78-47.52a4.19,4.19,0,0,0-4.7-1.28l-48,17.64A222.64,222.64,0,0,0,2503,720.52l-11.7-49.74a4.22,4.22,0,0,0-3.67-3.22l-61-6.18a4.19,4.19,0,0,0-4.23,2.42L2401,710.18A222.67,222.67,0,0,0,2331.86,731l-43.47-26.91a4.2,4.2,0,0,0-4.87.31L2236,743.14a4.19,4.19,0,0,0-1.29,4.7l17.65,48a222.93,222.93,0,0,0-34.22,63.53l-49.74,11.71a4.19,4.19,0,0,0-3.21,3.66l-6.18,61a4.22,4.22,0,0,0,2.41,4.24l46.38,21.44a222.79,222.79,0,0,0,20.78,69.1L2201.68,1074a4.2,4.2,0,0,0,.32,4.87Z"/><path class="cls-24" d="M2430,994a61.66,61.66,0,1,1,9-.66A62.87,62.87,0,0,1,2430,994Zm.14-108.92a48.56,48.56,0,0,0-7,.51,47.19,47.19,0,1,0,7-.51Z"/><path class="cls-24" d="M2431.23,1083.07a153.35,153.35,0,0,1-15.55-.79h0c-1.64-.16-3.28-.35-4.91-.57a153.76,153.76,0,0,1-23.73-5.12l-.32-.1-.89-.28c-.58-.17-1.16-.36-1.74-.55a3.59,3.59,0,0,1-2.49-3.41,3.64,3.64,0,0,1,.18-1.12,3.6,3.6,0,0,1,4.53-2.31,144.52,144.52,0,0,0,158.07-48.06A143.56,143.56,0,0,0,2574.61,946a148.22,148.22,0,0,0,.75-14.84,144.44,144.44,0,0,0-129.85-143.37c-79.25-8-150.19,49.9-158.21,129.1a144.43,144.43,0,0,0,12.88,75.83,3.37,3.37,0,0,1,.34,1.53,3.6,3.6,0,0,1-6.85,1.53,151.16,151.16,0,0,1-14.3-64.23q0-7.68.77-15.38c8.43-83.16,83-144,166.09-135.53a151.62,151.62,0,0,1,136.32,150.5,153.94,153.94,0,0,1-.79,15.58,151.59,151.59,0,0,1-150.53,136.32Z"/><path class="cls-25" d="M2524,2116.75l-601.62,2.59c-49.49.21-90.13-37.1-91.6-84.13-6.57-208.87-22.93-818.55-20.71-1017.42.39-34.18,29-62,65-63.13,139.75-4.43,475.81-12.11,631.94,10.27,32.88,4.71,57.57,31,58.77,62.56,6.64,175,28.15,828.54,24.31,1027.32C2589.38,2089.1,2560,2116.6,2524,2116.75Z"/><path class="cls-26" d="M2500.48,2065.41l-559.59,2.41c-28.29.12-51.43-21.45-52-48.43l-18.29-970.72c-.53-26.76,21.94-48.79,50-49l554.58-4.21c20-.16,36.55,15,37.12,34.14l27.91,996.63C2540.86,2047.61,2522.91,2065.31,2500.48,2065.41Z"/><ellipse class="cls-8" cx="2204.1" cy="1410.59" rx="225.71" ry="228.6"/><path class="cls-27" d="M2196.15,1533.77a27.88,27.88,0,0,1-24-13.72l-84.91-143.16a28.5,28.5,0,0,1,9.56-38.83,27.75,27.75,0,0,1,38.34,9.69l58.94,99.37,77.93-155a27.77,27.77,0,0,1,37.57-12.38,28.46,28.46,0,0,1,12.23,38l-100.81,200.53a27.91,27.91,0,0,1-23.92,15.44C2196.8,1533.77,2196.48,1533.77,2196.15,1533.77Z"/><path class="cls-28" d="M2233.22,1545.65c-1.06,121.2-4.21,539.25,1.6,687.31.62,15.69,11.53,28.15,24.94,28.49,66.37,1.72,309.64,5.14,418.07-1.53,22.59-1.39,40.29-23,40.44-49.49.67-127.21,1.21-485-12.64-648.7-1.66-19.61-15-35.08-31.81-36.84-72.35-7.56-316.84-25.19-410.49-16.91C2246.44,1509.47,2233.39,1525.83,2233.22,1545.65Z"/><path class="cls-29" d="M2263.28,1582.46c-2.36,97.84-9.59,423.34-4.52,543.6.74,17.58,12.76,31.65,27.79,32.5,61.88,3.46,272.91,10.18,363.48.56,16.31-1.73,28.93-17.34,29.58-36.49,3.36-99.83,12.79-402.94,7.89-521.86-.78-19-13.54-34.32-29.73-35.81-67-6.2-291.3-20.14-368.29-14.26C2275,1551.8,2263.69,1565.52,2263.28,1582.46Z"/><path class="cls-30" d="M2397,1527.49h0c.05,3.72,2.56,6.76,5.74,6.91,15.68.77,59.85,2.94,79.59,4,3.9.22,6.9-3.91,6.1-8.38l-.13-.76a6.42,6.42,0,0,0-5.39-5.57c-13.35-1.26-53.63-4.73-80.27-3.28C2399.4,1520.61,2396.92,1523.74,2397,1527.49Z"/><ellipse class="cls-8" cx="2478.94" cy="1868.86" rx="160.41" ry="162.46"/><path class="cls-31" d="M2473.29,1956.4a19.79,19.79,0,0,1-17-9.75l-60.35-101.73a20.26,20.26,0,0,1,6.8-27.6,19.71,19.71,0,0,1,27.24,6.88l41.89,70.62,55.38-110.16a19.74,19.74,0,0,1,26.71-8.8,20.23,20.23,0,0,1,8.68,27.05L2491,1945.42a19.82,19.82,0,0,1-17,11Z"/></g></g></g></svg>